<svg width="64" height="64" viewBox="0 0 64 64" fill="none" xmlns="http://www.w3.org/2000/svg">
<g opacity="0.4">
<path d="M26.1136 2.73608L24.9844 9.84224L25.9722 9.99818L27.1013 2.89202L26.1136 2.73608Z" fill="white"/>
<path d="M13.1695 18.3988L6.03973 17.2732L5.88281 18.2608L13.0126 19.3864L13.1695 18.3988Z" fill="white"/>
<path d="M32.252 13.8326L38.0913 9.60376L38.68 10.4115L32.8407 14.6403L32.252 13.8326Z" fill="white"/>
<path d="M8.89062 30.7502L14.7299 26.5215L15.3186 27.3292L9.47936 31.5579L8.89062 30.7502Z" fill="white"/>
<path d="M17.8294 11.5572L13.5858 5.73511L12.7754 6.32194L17.0191 12.144L17.8294 11.5572Z" fill="white"/>
</g>
<path fill-rule="evenodd" clip-rule="evenodd" d="M20.7824 19.872C20.4783 18.2298 22.2523 17.0007 23.6887 17.8419L54.2933 35.7642C55.8393 36.6695 55.4394 38.9949 53.6865 39.3455L42.6387 41.5547L50.5491 52.8075C51.1677 53.6875 50.9514 54.9001 50.069 55.5156L47.297 57.4489C46.4156 58.0636 45.2005 57.8519 44.5827 56.973L36.6695 45.7162L30.8052 55.3038C29.8751 56.8245 27.5484 56.4044 27.223 54.6474L20.7824 19.872ZM23.1829 18.7045C22.4778 18.2916 21.6194 18.8984 21.7659 19.6897L28.2065 54.4652C28.3638 55.3143 29.4968 55.5265 29.9519 54.7825L35.829 45.1739C36.1981 44.5705 37.0666 44.5419 37.4736 45.1208L45.4011 56.398C45.7011 56.8248 46.2939 56.9296 46.7248 56.6291L49.4968 54.6957C49.9266 54.396 50.0299 53.8082 49.7307 53.3825L41.8032 42.1053C41.3941 41.5234 41.7222 40.7184 42.4157 40.5797L53.4906 38.3651C54.3481 38.1936 54.5349 37.0646 53.7875 36.6269L23.1829 18.7045Z" fill="white"/>
</svg>
